<svg width="24" height="24" viewBox="0 0 24 24"  fill="#6151FF" stroke="" xmlns="http://www.w3.org/2000/svg">
<path d="M12.0012 20.25C12.0012 20.25 2.62622 15 2.62622 8.62501C2.62641 7.49826 3.01683 6.40635 3.73111 5.53493C4.44538 4.66351 5.43942 4.06636 6.54421 3.84501C7.649 3.62367 8.79636 3.79179 9.79121 4.32079C10.7861 4.84979 11.567 5.70702 12.0012 6.74673L12.0012 6.74673C12.4355 5.70702 13.2164 4.84979 14.2112 4.32079C15.2061 3.79179 16.3534 3.62367 17.4582 3.84501C18.563 4.06636 19.5571 4.66351 20.2713 5.53493C20.9856 6.40635 21.376 7.49826 21.3762 8.62501C21.3762 15 12.0012 20.25 12.0012 20.25Z" stroke="#808191" stroke-width="1.5" stroke-linecap="round" stroke-linejoin="round"/>
</svg>
