<svg width="34" height="34" viewBox="0 0 34 34" fill="none" xmlns="http://www.w3.org/2000/svg">
<circle cx="17" cy="17" r="17" fill="white"/>
<path d="M17.0007 22.5C17.0007 22.5 10.7507 19 10.7507 14.75C10.7509 13.9988 11.0111 13.2709 11.4873 12.69C11.9635 12.109 12.6262 11.7109 13.3627 11.5633C14.0993 11.4158 14.8642 11.5279 15.5274 11.8805C16.1906 12.2332 16.7112 12.8047 17.0007 13.4978L17.0007 13.4978C17.2902 12.8047 17.8108 12.2332 18.4741 11.8805C19.1373 11.5279 19.9022 11.4158 20.6387 11.5633C21.3753 11.7109 22.038 12.109 22.5141 12.69C22.9903 13.2709 23.2506 13.9988 23.2507 14.75C23.2507 19 17.0007 22.5 17.0007 22.5Z" stroke="black" stroke-width="1.5" stroke-linecap="round" stroke-linejoin="round"/>
</svg>
