<svg width="16" height="16" viewBox="0 0 16 16" fill="none" xmlns="http://www.w3.org/2000/svg">
<path d="M8.00098 13.5C8.00098 13.5 1.75098 10 1.75098 5.75001C1.7511 4.99884 2.01138 4.2709 2.48757 3.68995C2.96375 3.109 3.62644 2.71091 4.36297 2.56334C5.0995 2.41578 5.8644 2.52786 6.52764 2.88053C7.19087 3.23319 7.71149 3.80468 8.00098 4.49782L8.00097 4.49782C8.29046 3.80468 8.81108 3.2332 9.47431 2.88053C10.1375 2.52786 10.9025 2.41578 11.639 2.56334C12.3755 2.71091 13.0382 3.109 13.5144 3.68995C13.9906 4.2709 14.2508 4.99884 14.251 5.75001C14.251 10 8.00098 13.5 8.00098 13.5Z" fill="white"/>
</svg>
