<svg width="34" height="34" viewBox="0 0 34 34" fill="none" xmlns="http://www.w3.org/2000/svg">
<circle cx="17" cy="17" r="17" fill="#6151FF"/>
<path d="M17.001 22.5C17.001 22.5 10.751 19 10.751 14.75C10.7511 13.9988 11.0114 13.2709 11.4876 12.69C11.9637 12.109 12.6264 11.7109 13.363 11.5633C14.0995 11.4158 14.8644 11.5279 15.5276 11.8805C16.1909 12.2332 16.7115 12.8047 17.001 13.4978L17.001 13.4978C17.2905 12.8047 17.8111 12.2332 18.4743 11.8805C19.1375 11.5279 19.9025 11.4158 20.639 11.5633C21.3755 11.7109 22.0382 12.109 22.5144 12.69C22.9906 13.2709 23.2508 13.9988 23.251 14.75C23.251 19 17.001 22.5 17.001 22.5Z" fill="white"/>
</svg>
