<svg width="24" height="24" viewBox="0 0 24 24" fill="none" xmlns="http://www.w3.org/2000/svg">
<path d="M6.7109 13.5L3 16.5V4.50005C3 4.30113 3.07902 4.11037 3.21967 3.96972C3.36032 3.82906 3.55109 3.75005 3.75 3.75005H15.75C15.9489 3.75005 16.1397 3.82906 16.2803 3.96972C16.421 4.11037 16.5 4.30113 16.5 4.50005V12.75C16.5 12.949 16.421 13.1397 16.2803 13.2804C16.1397 13.421 15.9489 13.5 15.75 13.5H6.7109Z" stroke="#808191" stroke-width="2" stroke-linecap="round" stroke-linejoin="round"/>
<path d="M7.5 13.5V17.25C7.5 17.449 7.57902 17.6397 7.71967 17.7804C7.86032 17.921 8.05109 18 8.25 18H17.2891L21 21V9.00005C21 8.80113 20.921 8.61037 20.7803 8.46972C20.6397 8.32906 20.4489 8.25005 20.25 8.25005H16.5" stroke="#808191" stroke-width="2" stroke-linecap="round" stroke-linejoin="round"/>
</svg>
